<svg xmlns="http://www.w3.org/2000/svg" xmlns:xlink="http://www.w3.org/1999/xlink" viewBox="0 0 363.08 250.6"><defs><style>.cls-1{fill:url(#linear-gradient);}.cls-2{fill:url(#linear-gradient-2);}</style><linearGradient id="linear-gradient" y1="118.28" x2="363.08" y2="118.28" gradientUnits="userSpaceOnUse"><stop offset="0" stop-color="#ec6d6f"/><stop offset="1" stop-color="#ea5955"/></linearGradient><linearGradient id="linear-gradient-2" x1="67.26" y1="191.85" x2="311.22" y2="191.85" xlink:href="#linear-gradient"/></defs><g id="Layer_2" data-name="Layer 2"><g id="Layer_1-2" data-name="Layer 1"><path class="cls-1" d="M361.44,80.56,201.1,2.65a26.42,26.42,0,0,0-23,0L17.35,80.56c-.06,0-.11.08-.16.11-2.38.92-10,4.83-10.12,17.25-.15,11.56,0,35.57,0,40.38a6.58,6.58,0,0,0-2.69,5.54,6.25,6.25,0,0,0,3.57,6L0,234.91a1.52,1.52,0,0,0,1.51,1.66H17.44A1.53,1.53,0,0,0,19,234.91L11,149.76a6.33,6.33,0,0,0,3.38-5.92,6.53,6.53,0,0,0-2.88-5.68c0-5-.16-28.75,0-40.18.1-7.45,3.41-10.86,5.63-12.31.08,0,.12.11.2.14l160.71,77.92a26.35,26.35,0,0,0,23,0L361.44,85.81A2.92,2.92,0,0,0,361.44,80.56Zm-79.61,22.16A112.27,112.27,0,0,1,260.58,119c-4.89,3-10.45,6-16.75,9.1l-1.34.64q-5.62,2.67-11.24,4.8a124.84,124.84,0,0,1-37.6,8.31c-2,.11-4.06.17-6.09.17a113.17,113.17,0,0,1-32.65-4.87,165.43,165.43,0,0,1-27.55-11.27C114,119.1,99.25,110.53,92.45,95a33.61,33.61,0,0,1,.8-29,50.66,50.66,0,0,1,13.59-15.93,94,94,0,0,1,16.51-10.36c1-.5,1.91-1,2.81-1.41q4.22-2,8.22-3.82C182.61,13.06,210.06,18.83,219,21.93a3,3,0,0,1,1.78,3.95,1.26,1.26,0,0,1-.12.29l-.31.61-2.18,4.15a3,3,0,0,1-3.56,1.46c-1-.3-2.3-.66-3.93-1a76.9,76.9,0,0,0-23.94-.57,149.15,149.15,0,0,0-43,12c-4.68,2.08-9.5,3.89-13.95,6.45a25.54,25.54,0,0,0-10.62,10.87,22,22,0,0,0-.48,19.26c5.29,12.1,18.08,19.41,29.67,25.32A153.31,153.31,0,0,0,174,115.2a101.29,101.29,0,0,0,34.84,4.24A113.41,113.41,0,0,0,242.68,112c.5-.21,1-.44,1.5-.68l1.25-.61c2.25-1.08,4.4-2.17,6.42-3.24a119.56,119.56,0,0,0,12.86-9.08c9.77-10,10.92-17.49,10.9-20.47,0-5-2.52-7.51-3.84-8.14L237.88,53.62,202.31,70.87l-.62-.31-12.3-6,8.72-4.23,1.92-.94,36.61-17.73,6.45-3.13a7.83,7.83,0,0,1,6.83,0l36,17.19c6.21,3,10.26,10.15,10.29,18.31C296.25,80.41,293.8,90.7,281.83,102.72Z"/><path class="cls-2" d="M301.06,133.37,264.74,151l-63.8,31a26.38,26.38,0,0,1-23,0L113.86,151l-36.4-17.66h0a8.37,8.37,0,0,0-10.18,8.18v48c0,13.84,14.62,29.5,37.9,41.48,22.28,11.48,52.49,19.61,85.4,19.61,36.12,0,68.19-9.77,90.17-23,19-11.45,30.49-25.52,30.49-38.08V141.56A8.37,8.37,0,0,0,301.06,133.37Zm-18.72,79.71a2,2,0,0,1-.64,1.48,2,2,0,0,1-1.54.64l-25.48,8.54a2.1,2.1,0,0,1-1.55-.63,2,2,0,0,1-.64-1.48V182.27l-57,29.14A5.48,5.48,0,0,1,193,212h-7.54a5.41,5.41,0,0,1-2.44-.58l-57-29.14v39.36a2,2,0,0,1-.63,1.48,2.13,2.13,0,0,1-1.56.63L98.32,215.2a2.19,2.19,0,0,1-2.18-2.12v-51a2,2,0,0,1,.64-1.48,2.09,2.09,0,0,1,1.54-.63h16.55a2,2,0,0,1,1.06.32l73.25,38h.12l73.25-38a2.05,2.05,0,0,1,1.06-.32h16.55a2.06,2.06,0,0,1,1.54.63,2,2,0,0,1,.64,1.48Z"/></g></g></svg>